<svg xmlns="http://www.w3.org/2000/svg" width="512" height="512" viewBox="0 0 512 512">
  <defs>
    <linearGradient id="g" x1="0" y1="0" x2="1" y2="1">
      <stop offset="0" stop-color="#0F62FE"/>
      <stop offset="1" stop-color="#00B8A9"/>
    </linearGradient>
  </defs>
  <rect width="512" height="512" rx="112" fill="url(#g)"/>
  <path fill="#fff" d="M384 268.5c0-9.6-5.1-18.4-13.4-23.2L300 204v-78c0-19.3-15.7-35-35-35s-35 15.7-35 35v78l-70.6 41.3c-8.3 4.8-13.4 13.6-13.4 23.2 0 11.2 10.6 19.4 21.4 16.6L230 290v54l-34 25.5c-3.1 2.3-5 6-5 9.9V404c0 4.6 4.4 8 8.9 6.8L265 394l65.1 16.8c4.5 1.2 8.9-2.2 8.9-6.8v-24.6c0-3.9-1.9-7.6-5-9.9L300 344v-54l62.6 11.1c10.8 2.8 21.4-5.4 21.4-16.6z"/>
</svg>
